<svg width="38" height="38" fill="none" xmlns="http://www.w3.org/2000/svg"><path d="M19 14.288a4.712 4.712 0 100 9.424 4.712 4.712 0 000-9.424zm18.867-4.655a12.408 12.408 0 00-.798-4.294A7.6 7.6 0 0032.661.931a12.407 12.407 0 00-4.294-.798C25.916 0 25.194 0 19 0c-6.194 0-6.916 0-9.367.133-1.467.01-2.921.28-4.294.798A7.6 7.6 0 00.931 5.339a12.407 12.407 0 00-.798 4.294C0 12.084 0 12.806 0 19c0 6.194 0 6.916.133 9.367.02 1.472.29 2.93.798 4.313.38 1 .97 1.907 1.729 2.66a7.391 7.391 0 002.679 1.729c1.373.518 2.827.788 4.294.798C12.084 38 12.806 38 19 38c6.194 0 6.916 0 9.367-.133 1.467-.01 2.921-.28 4.294-.798a7.391 7.391 0 002.679-1.729 7.486 7.486 0 001.729-2.66c.517-1.38.787-2.84.798-4.313C38 25.916 38 25.194 38 19c0-6.194 0-6.916-.133-9.367zm-4.826 15.2a10.888 10.888 0 01-.741 3.42 7.336 7.336 0 01-4.047 4.047c-1.103.406-2.264.63-3.439.665H13.186a10.888 10.888 0 01-3.439-.665 6.668 6.668 0 01-2.489-1.634A6.668 6.668 0 015.7 28.253a10.431 10.431 0 01-.646-3.439V13.186c.02-1.175.239-2.337.646-3.439a6.669 6.669 0 011.634-2.489A6.821 6.821 0 019.747 5.7a10.887 10.887 0 013.439-.665h11.628a10.92 10.92 0 013.439.665c.942.35 1.793.909 2.489 1.634A6.67 6.67 0 0132.3 9.747c.406 1.103.63 2.264.665 3.439V19c0 3.914.133 4.313.076 5.814v.019zm-3.04-14.136a4.522 4.522 0 00-2.679-2.679A7.6 7.6 0 0024.7 7.6H13.3a7.6 7.6 0 00-2.622.494 4.522 4.522 0 00-2.679 2.584A8.113 8.113 0 007.6 13.3v11.4c.019.895.186 1.781.494 2.622a4.522 4.522 0 002.679 2.679c.81.298 1.664.465 2.527.494h11.4a7.6 7.6 0 002.622-.494 4.522 4.522 0 002.679-2.679 7.6 7.6 0 00.494-2.622V13.3a7.18 7.18 0 00-.494-2.622v.019zM19 26.258A7.24 7.24 0 0111.761 19 7.259 7.259 0 1119 26.258zm7.6-13.091a1.71 1.71 0 010-3.401 1.71 1.71 0 010 3.401z" fill="#FFA943"/></svg>