<svg width="38" height="38" fill="none" xmlns="http://www.w3.org/2000/svg"><path d="M19 0C8.506 0 0 8.506 0 19s8.506 19 19 19 19-8.506 19-19S29.494 0 19 0zm7.729 15.564c.008.162.01.325.01.483 0 4.948-3.763 10.65-10.646 10.65a10.559 10.559 0 01-5.736-1.682c.29.035.59.05.893.05a7.495 7.495 0 004.647-1.602 3.75 3.75 0 01-3.495-2.597 3.76 3.76 0 001.688-.065 3.744 3.744 0 01-3.003-3.67v-.045c.505.28 1.083.45 1.696.47a3.74 3.74 0 01-1.157-5 10.639 10.639 0 007.712 3.913 3.743 3.743 0 016.377-3.414 7.513 7.513 0 002.375-.909 3.76 3.76 0 01-1.644 2.072 7.52 7.52 0 002.149-.591 7.589 7.589 0 01-1.866 1.937z" fill="#FFA943"/></svg>