<svg width="30" height="29" fill="none" xmlns="http://www.w3.org/2000/svg"><path d="M14.792 16.204a1.412 1.412 0 100-2.824 1.412 1.412 0 000 2.824zm5.647 0a1.412 1.412 0 100-2.824 1.412 1.412 0 000 2.824zm-11.294 0a1.412 1.412 0 100-2.824 1.412 1.412 0 000 2.824z" fill="#fff"/><path d="M24.773 4.811A14.118 14.118 0 001.79 20.341c.136.28.18.595.127.903L.675 27.215a1.412 1.412 0 00.381 1.285 1.413 1.413 0 001.03.41h.283l6.042-1.215c.307-.037.619.007.904.127A14.117 14.117 0 0024.844 4.84l-.07-.028zm1.172 11.802a11.295 11.295 0 01-15.53 8.583 4.603 4.603 0 00-1.764-.367 4.85 4.85 0 00-.79.07l-3.981.806.804-3.981a4.362 4.362 0 00-.296-2.556A11.294 11.294 0 0118.26 4.033a11.294 11.294 0 017.685 12.58z" fill="#fff"/></svg>