<svg width="40" height="40" fill="none" xmlns="http://www.w3.org/2000/svg"><path d="M20 36.667c9.205 0 16.667-7.462 16.667-16.667 0-9.205-7.462-16.667-16.667-16.667-9.205 0-16.667 7.462-16.667 16.667 0 9.205 7.462 16.667 16.667 16.667z" stroke="#FEA34A" stroke-width="2" stroke-linecap="round" stroke-linejoin="round"/><path d="M20 26.667a6.667 6.667 0 100-13.334 6.667 6.667 0 000 13.334zM8.217 8.217l7.066 7.066m9.434 9.434l7.066 7.066m-7.066-16.5l7.066-7.066m-7.066 7.066L30.6 9.4M8.217 31.783l7.066-7.066" stroke="#FEA34A" stroke-width="2" stroke-linecap="round" stroke-linejoin="round"/></svg>