<svg width="25" height="24" fill="none" xmlns="http://www.w3.org/2000/svg"><path d="M24.462 12.049l-2.653-3.034.37-4.012-3.926-.892L16.198.63 12.5 2.22 8.803.63 6.748 4.1l-3.926.88.37 4.024L.539 12.05l2.653 3.034-.37 4.023 3.926.892 2.055 3.469 3.697-1.599 3.698 1.588 2.055-3.469 3.925-.891-.37-4.013 2.654-3.034zm-14.81 4.36L7.062 13.8a1.083 1.083 0 010-1.532l.076-.077a1.096 1.096 0 011.545 0l1.75 1.762 5.6-5.611a1.096 1.096 0 011.545 0l.076.076c.424.424.424 1.11 0 1.533l-6.438 6.46a1.123 1.123 0 01-1.566 0z" fill="#FEA34A"/></svg>