<svg width="0" height="0" class="hidden"><symbol fill="none" xmlns="http://www.w3.org/2000/svg" viewBox="0 0 40 40" id="briefcase"><path d="M33.333 11.667H6.667A3.333 3.333 0 003.333 15v16.667A3.333 3.333 0 006.667 35h26.666a3.333 3.333 0 003.334-3.333V15a3.333 3.333 0 00-3.334-3.333z" stroke="#FEA34A" stroke-width="2" stroke-linecap="round" stroke-linejoin="round"/><path d="M26.667 35V8.333A3.333 3.333 0 0023.333 5h-6.666a3.333 3.333 0 00-3.334 3.333V35" stroke="#FEA34A" stroke-width="2" stroke-linecap="round" stroke-linejoin="round"/></symbol><symbol fill="none" xmlns="http://www.w3.org/2000/svg" viewBox="0 0 35 35" id="key"><path d="M21.5 8.5a1.667 1.667 0 000 2.333l2.667 2.667a1.667 1.667 0 002.333 0l6.283-6.283A10 10 0 0119.55 20.45L8.033 31.967a3.536 3.536 0 01-5-5L14.55 15.45A10 10 0 0127.783 2.217l-6.266 6.266-.017.017z" stroke="#FEA34A" stroke-width="2" stroke-linecap="round" stroke-linejoin="round"/></symbol><symbol fill="none" xmlns="http://www.w3.org/2000/svg" viewBox="0 0 40 40" id="life"><path d="M20 36.667c9.205 0 16.667-7.462 16.667-16.667 0-9.205-7.462-16.667-16.667-16.667-9.205 0-16.667 7.462-16.667 16.667 0 9.205 7.462 16.667 16.667 16.667z" stroke="#FEA34A" stroke-width="2" stroke-linecap="round" stroke-linejoin="round"/><path d="M20 26.667a6.667 6.667 0 100-13.334 6.667 6.667 0 000 13.334zM8.217 8.217l7.066 7.066m9.434 9.434l7.066 7.066m-7.066-16.5l7.066-7.066m-7.066 7.066L30.6 9.4M8.217 31.783l7.066-7.066" stroke="#FEA34A" stroke-width="2" stroke-linecap="round" stroke-linejoin="round"/></symbol><symbol fill="none" xmlns="http://www.w3.org/2000/svg" viewBox="0 0 41 41" id="facebook"><path d="M40.36 20.5C40.36 9.53 31.47.64 20.5.64 9.53.64.64 9.53.64 20.5c0 9.912 7.263 18.128 16.757 19.62V26.24h-5.045V20.5h5.045v-4.375c0-4.977 2.963-7.726 7.5-7.726 2.174 0 4.447.387 4.447.387v4.885h-2.505c-2.466 0-3.236 1.531-3.236 3.101V20.5h5.508l-.881 5.74h-4.627v13.88c9.494-1.492 16.756-9.708 16.756-19.62z" fill="#FFA943"/></symbol><symbol fill="none" xmlns="http://www.w3.org/2000/svg" viewBox="0 0 38 38" id="inst"><path d="M19 14.288a4.712 4.712 0 100 9.424 4.712 4.712 0 000-9.424zm18.867-4.655a12.408 12.408 0 00-.798-4.294A7.6 7.6 0 0032.661.931a12.407 12.407 0 00-4.294-.798C25.916 0 25.194 0 19 0c-6.194 0-6.916 0-9.367.133-1.467.01-2.921.28-4.294.798A7.6 7.6 0 00.931 5.339a12.407 12.407 0 00-.798 4.294C0 12.084 0 12.806 0 19c0 6.194 0 6.916.133 9.367.02 1.472.29 2.93.798 4.313.38 1 .97 1.907 1.729 2.66a7.391 7.391 0 002.679 1.729c1.373.518 2.827.788 4.294.798C12.084 38 12.806 38 19 38c6.194 0 6.916 0 9.367-.133 1.467-.01 2.921-.28 4.294-.798a7.391 7.391 0 002.679-1.729 7.486 7.486 0 001.729-2.66c.517-1.38.787-2.84.798-4.313C38 25.916 38 25.194 38 19c0-6.194 0-6.916-.133-9.367zm-4.826 15.2a10.888 10.888 0 01-.741 3.42 7.336 7.336 0 01-4.047 4.047c-1.103.406-2.264.63-3.439.665H13.186a10.888 10.888 0 01-3.439-.665 6.668 6.668 0 01-2.489-1.634A6.668 6.668 0 015.7 28.253a10.431 10.431 0 01-.646-3.439V13.186c.02-1.175.239-2.337.646-3.439a6.669 6.669 0 011.634-2.489A6.821 6.821 0 019.747 5.7a10.887 10.887 0 013.439-.665h11.628a10.92 10.92 0 013.439.665c.942.35 1.793.909 2.489 1.634A6.67 6.67 0 0132.3 9.747c.406 1.103.63 2.264.665 3.439V19c0 3.914.133 4.313.076 5.814v.019zm-3.04-14.136a4.522 4.522 0 00-2.679-2.679A7.6 7.6 0 0024.7 7.6H13.3a7.6 7.6 0 00-2.622.494 4.522 4.522 0 00-2.679 2.584A8.113 8.113 0 007.6 13.3v11.4c.019.895.186 1.781.494 2.622a4.522 4.522 0 002.679 2.679c.81.298 1.664.465 2.527.494h11.4a7.6 7.6 0 002.622-.494 4.522 4.522 0 002.679-2.679 7.6 7.6 0 00.494-2.622V13.3a7.18 7.18 0 00-.494-2.622v.019zM19 26.258A7.24 7.24 0 0111.761 19 7.259 7.259 0 1119 26.258zm7.6-13.091a1.71 1.71 0 010-3.401 1.71 1.71 0 010 3.401z" fill="#FFA943"/></symbol><symbol fill="none" xmlns="http://www.w3.org/2000/svg" viewBox="0 0 38 38" id="twitter"><path d="M19 0C8.506 0 0 8.506 0 19s8.506 19 19 19 19-8.506 19-19S29.494 0 19 0zm7.729 15.564c.008.162.01.325.01.483 0 4.948-3.763 10.65-10.646 10.65a10.559 10.559 0 01-5.736-1.682c.29.035.59.05.893.05a7.495 7.495 0 004.647-1.602 3.75 3.75 0 01-3.495-2.597 3.76 3.76 0 001.688-.065 3.744 3.744 0 01-3.003-3.67v-.045c.505.28 1.083.45 1.696.47a3.74 3.74 0 01-1.157-5 10.639 10.639 0 007.712 3.913 3.743 3.743 0 016.377-3.414 7.513 7.513 0 002.375-.909 3.76 3.76 0 01-1.644 2.072 7.52 7.52 0 002.149-.591 7.589 7.589 0 01-1.866 1.937z" fill="#FFA943"/></symbol><symbol fill="none" xmlns="http://www.w3.org/2000/svg" viewBox="0 0 32 32" id="viber"><path d="M8.405 26.39l1.158.677A12.725 12.725 0 0016 28.8 12.8 12.8 0 103.2 16a12.72 12.72 0 001.734 6.438l.676 1.159-1.045 3.841 3.84-1.048zM.006 32l2.164-7.949A15.926 15.926 0 010 16C0 7.163 7.163 0 16 0s16 7.163 16 16-7.163 16-16 16a15.927 15.927 0 01-8.048-2.168L.006 32zm10.22-23.507a5.42 5.42 0 01.644-.007c.087.007.173.016.26.026.254.029.534.184.628.398.477 1.082.941 2.172 1.39 3.264.098.244.04.556-.15.86-.13.205-.27.404-.42.595-.181.232-.57.657-.57.657s-.158.19-.098.424c.023.09.096.22.164.328l.094.152c.41.684.96 1.376 1.632 2.03.192.185.38.375.58.553.75.66 1.598 1.2 2.513 1.6l.008.003c.136.06.205.091.403.176.1.042.202.078.306.106a.56.56 0 00.587-.208c1.158-1.404 1.264-1.495 1.273-1.495v.003a.772.772 0 01.605-.203.828.828 0 01.283.064c.85.389 2.24.995 2.24.995l.932.418c.156.075.299.253.304.424.006.107.016.28-.021.597-.051.414-.176.912-.301 1.173a1.849 1.849 0 01-.336.483c-.161.17-.338.324-.528.46-.066.05-.132.098-.2.145a8.065 8.065 0 01-.613.352 3.184 3.184 0 01-1.333.368c-.296.016-.592.038-.89.022-.012 0-.908-.14-.908-.14a15.118 15.118 0 01-6.144-3.273c-.362-.318-.696-.66-1.038-1.001-1.424-1.416-2.5-2.944-3.152-4.388a5.552 5.552 0 01-.53-2.262 4.367 4.367 0 01.902-2.688c.117-.15.228-.307.418-.488.203-.192.331-.294.47-.365.185-.093.387-.147.594-.16l.002.002z" fill="#FFA943"/></symbol><symbol fill="none" xmlns="http://www.w3.org/2000/svg" viewBox="0 0 38 38" id="youtube"><path d="M22.173 18.67l-4.446-2.075c-.387-.18-.706.022-.706.452v3.906c0 .43.319.632.706.452l4.444-2.075c.39-.182.39-.478.002-.66zM19 0C8.506 0 0 8.506 0 19s8.506 19 19 19 19-8.506 19-19S29.494 0 19 0zm0 26.719c-9.726 0-9.896-.877-9.896-7.719 0-6.842.17-7.719 9.896-7.719s9.896.877 9.896 7.719c0 6.842-.17 7.719-9.896 7.719z" fill="#FFA943"/></symbol></svg>