<svg width="32" height="32" fill="none" xmlns="http://www.w3.org/2000/svg"><path d="M8.405 26.39l1.158.677A12.725 12.725 0 0016 28.8 12.8 12.8 0 103.2 16a12.72 12.72 0 001.734 6.438l.676 1.159-1.045 3.841 3.84-1.048zM.006 32l2.164-7.949A15.926 15.926 0 010 16C0 7.163 7.163 0 16 0s16 7.163 16 16-7.163 16-16 16a15.927 15.927 0 01-8.048-2.168L.006 32zm10.22-23.507a5.42 5.42 0 01.644-.007c.087.007.173.016.26.026.254.029.534.184.628.398.477 1.082.941 2.172 1.39 3.264.098.244.04.556-.15.86-.13.205-.27.404-.42.595-.181.232-.57.657-.57.657s-.158.19-.098.424c.023.09.096.22.164.328l.094.152c.41.684.96 1.376 1.632 2.03.192.185.38.375.58.553.75.66 1.598 1.2 2.513 1.6l.008.003c.136.06.205.091.403.176.1.042.202.078.306.106a.56.56 0 00.587-.208c1.158-1.404 1.264-1.495 1.273-1.495v.003a.772.772 0 01.605-.203.828.828 0 01.283.064c.85.389 2.24.995 2.24.995l.932.418c.156.075.299.253.304.424.006.107.016.28-.021.597-.051.414-.176.912-.301 1.173a1.849 1.849 0 01-.336.483c-.161.17-.338.324-.528.46-.066.05-.132.098-.2.145a8.065 8.065 0 01-.613.352 3.184 3.184 0 01-1.333.368c-.296.016-.592.038-.89.022-.012 0-.908-.14-.908-.14a15.118 15.118 0 01-6.144-3.273c-.362-.318-.696-.66-1.038-1.001-1.424-1.416-2.5-2.944-3.152-4.388a5.552 5.552 0 01-.53-2.262 4.367 4.367 0 01.902-2.688c.117-.15.228-.307.418-.488.203-.192.331-.294.47-.365.185-.093.387-.147.594-.16l.002.002z" fill="#FFA943"/></svg>